<?xml version="1.0" encoding="UTF-8"?>
<svg width="323px" height="376px" viewBox="0 0 323 376" version="1.1" xmlns="http://www.w3.org/2000/svg" xmlns:xlink="http://www.w3.org/1999/xlink">
    <!-- Generator: Sketch 54.1 (76490) - https://sketchapp.com -->
    <title>Group</title>
    <desc>Created with Sketch.</desc>
    <defs>
        <path d="M3.555,15.897 C2.865,15.897 2.195,15.862 1.548,15.798 L0.184,7.502 C1.718,7.742 3.245,7.849 4.749,7.849 C17.072,7.849 27.828,0.66 27.828,0.66 C18.797,12.654 10.207,15.897 3.555,15.897 L3.555,15.897 Z" id="path-1"></path>
    </defs>
    <g id="Page-1" stroke="none" stroke-width="1" fill="none" fill-rule="evenodd">
        <g id="249769-P3XH81-185" transform="translate(-98.000000, -39.000000)">
            <g id="Group" transform="translate(98.805814, 39.630000)">
                <path d="M318.852186,365.735 C318.852186,365.735 283.951186,382.141 260.584186,371.38 C237.216186,360.618 165.028186,355.804 120.083186,365.735 C53.524186,380.442 33.749186,356.427 40.736186,340.604 L94.510186,333.647 C94.510186,333.647 163.945186,336.156 215.948186,336.783 C267.951186,337.41 316.438186,357.054 318.852186,365.735" id="Fill-4" fill="#DDDDDD"></path>
                <path d="M282.373186,314.141 C282.373186,333.574 219.161186,349.328 141.187186,349.328 C63.211186,349.328 0.0001859757,333.574 0.0001859757,314.141 C0.0001859757,294.708 63.211186,278.954 141.187186,278.954 C219.161186,278.954 282.373186,294.708 282.373186,314.141" id="Fill-5" fill="#DDDDDD"></path>
                <path d="M88.070186,312.891 C88.070186,312.891 37.288186,323.66 48.446186,351.475 C56.422186,371.357 150.399186,349.328 197.299186,350.439 C230.859186,351.234 256.970186,358.173 266.475186,362.609 C322.312186,388.672 347.452186,349.705 285.357186,335.609 C254.520186,328.609 229.807186,327.93 195.222186,329.609 C141.075186,332.239 84.175186,343.227 81.260186,338.548 C76.482186,330.88 118.353186,318.995 118.353186,318.995 C118.353186,318.995 113.172186,303.4 88.070186,312.891" id="Fill-6" fill="#32272B"></path>
                <path d="M81.548186,115.559 C81.548186,115.559 71.867186,142.273 46.237186,182.705 C26.343186,214.086 -6.02081402,313.307 137.489186,320.626 C280.999186,327.941 248.824186,242.481 235.706186,196.25 C222.590186,150.016 241.639186,54.951 185.755186,46.385 C129.873186,37.818 132.858186,45.262 112.625186,58.597 C106.785186,62.446 81.548186,115.559 81.548186,115.559" id="Fill-7" fill="#FFFBEF"></path>
                <path d="M240.977186,214.594 C240.977186,214.594 191.112186,212.08 186.003186,166.997 C186.003186,166.997 203.170186,207.925 237.759186,202.798 C237.759186,202.798 239.779186,210.148 240.977186,214.594" id="Fill-8" fill="#F5F0D3"></path>
                <path d="M110.656186,207.403 C110.656186,207.403 93.380186,231.916 72.797186,218.941 C52.214186,205.965 40.736186,192.64 40.736186,192.64 L48.299186,177.921 C48.299186,177.921 66.394186,218.015 110.656186,207.403" id="Fill-9" fill="#F5F0D3"></path>
                <path d="M38.501186,197.479 C38.501186,197.479 3.14318598,285.394 98.595186,290.629 C194.048186,295.863 248.074186,287.529 246.445186,238.342 C246.445186,238.342 265.082186,301.776 208.826186,315.109 C157.889186,327.182 83.052186,325.805 57.204186,300.346 C31.355186,274.885 15.121186,232.605 38.501186,197.479" id="Fill-10" fill="#F5F0D3"></path>
                <path d="M192.193186,53.127 L263.813186,52.51 C263.813186,52.51 258.464186,74.133 193.313186,84.538 L192.193186,53.127" id="Fill-11" fill="#32272B"></path>
                <path d="M210.089186,59.211 L249.800186,60.855 C249.800186,60.855 236.041186,71.801 217.239186,74.278 L210.089186,59.211" id="Fill-12" fill="#E78379"></path>
                <path d="M139.155186,56.31 L108.246186,0 C108.246186,0 100.621186,42.532 105.255186,70.543 L139.155186,56.31" id="Fill-13" fill="#32272B"></path>
                <path d="M125.950186,47.097 L112.290186,18.245 C112.290186,18.245 108.907186,40.069 107.477186,61.041 C107.477186,61.041 123.958186,54.222 125.950186,47.097" id="Fill-14" fill="#E78379"></path>
                <path d="M160.136186,43.2 C160.136186,43.2 178.271186,110.817 139.708186,124.112 C101.144186,137.409 81.548186,115.559 81.548186,115.559 C81.548186,115.559 90.711186,94.592 97.801186,77.208 C110.616186,45.791 142.244186,40.415 160.136186,43.2" id="Fill-15" fill="#32272B"></path>
                <path d="M176.519186,45.041 C176.519186,45.041 158.602186,112.88 180.963186,126.562 C203.323186,140.242 228.236186,122.785 228.236186,122.785 C228.236186,122.785 234.411186,45.406 176.519186,45.041" id="Fill-16" fill="#32272B"></path>
                <polyline id="Fill-17" fill="#32272B" points="165.724186 128.688 166.331186 139.565 168.509186 140.119 166.516186 128.89 165.724186 128.688"></polyline>
                <path d="M156.467186,153.083 C156.467186,153.083 166.367186,125.353 188.048186,134.543 C188.048186,134.543 171.616186,132.014 156.467186,153.083" id="Fill-18" fill="#32272B"></path>
                <path d="M110.803186,90.581 L148.562186,90.819 C148.562186,90.819 155.397186,113.871 131.484186,115.763 C107.567186,117.655 110.803186,90.581 110.803186,90.581" id="Fill-19" fill="#EEAC2B"></path>
                <path d="M115.045186,86.833 L144.523186,87.019 C144.523186,87.019 149.860186,105.016 131.189186,106.494 C112.519186,107.971 115.045186,86.833 115.045186,86.833" id="Fill-20" fill="#32272B"></path>
                <path d="M146.533186,94.179 C146.526186,95.364 145.560186,96.319 144.375186,96.311 C143.190186,96.304 142.236186,95.337 142.244186,94.152 C142.251186,92.968 143.217186,92.014 144.402186,92.021 C145.587186,92.029 146.541186,92.995 146.533186,94.179" id="Fill-21" fill="#FFFBEF"></path>
                <path d="M178.425186,91.007 L216.184186,91.245 C216.184186,91.245 223.021186,114.298 199.106186,116.188 C175.189186,118.081 178.425186,91.007 178.425186,91.007" id="Fill-22" fill="#EEAC2B"></path>
                <path d="M182.668186,87.259 L212.144186,87.445 C212.144186,87.445 217.481186,105.442 198.811186,106.919 C180.139186,108.397 182.668186,87.259 182.668186,87.259" id="Fill-23" fill="#32272B"></path>
                <path d="M214.156186,94.605 C214.148186,95.79 213.182186,96.745 211.997186,96.737 C210.813186,96.73 209.858186,95.763 209.866186,94.578 C209.874186,93.393 210.840186,92.44 212.024186,92.447 C213.210186,92.454 214.163186,93.421 214.156186,94.605" id="Fill-24" fill="#FFFBEF"></path>
                <path d="M150.399186,111.149 C150.399186,111.149 139.201186,129.701 109.714186,119.819 C109.714186,119.819 131.212186,127.433 150.399186,111.149" id="Fill-25" fill="#697673"></path>
                <polyline id="Fill-26" fill="#697673" points="152.780186 75.305 152.712186 86.357 108.541186 86.078 150.568186 84.269 152.780186 75.305"></polyline>
                <polyline id="Fill-27" fill="#697673" points="177.543186 77.617 178.313186 88.605 218.259186 88.184 180.872186 86.534 177.543186 77.617"></polyline>
                <path d="M179.946186,111.335 C179.946186,111.335 196.084186,139.601 215.948186,113.255 C215.948186,113.255 199.183186,136.08 179.946186,111.335" id="Fill-28" fill="#697673"></path>
                <path d="M208.220186,56.863 C208.220186,56.863 225.881186,56.421 230.673186,67.368 C230.673186,67.368 218.275186,58.492 207.841186,58.592 C207.841186,58.592 223.407186,60.794 226.475186,71.285 C226.475186,71.285 215.819186,58.712 206.153186,60.25 L208.220186,56.863" id="Fill-29" fill="#32272B"></path>
                <path d="M130.782186,48.977 C130.782186,48.977 122.719186,33.262 110.815186,34.291 C110.815186,34.291 124.540186,40.928 129.446186,50.138 C129.446186,50.138 120.065186,37.526 109.384186,39.851 C109.384186,39.851 125.523186,43.191 128.798186,52.414 L130.782186,48.977" id="Fill-30" fill="#32272B"></path>
                <path d="M157.337186,127.557 L87.421186,105.203 C87.421186,105.203 124.651186,120.396 157.337186,127.557" id="Fill-31" fill="#D9E9C5"></path>
                <path d="M157.337186,127.557 L80.973186,123.97 C80.973186,123.97 122.376186,129.378 157.337186,127.557" id="Fill-32" fill="#D9E9C5"></path>
                <path d="M152.712186,128.846 L82.496186,142.34 C82.496186,142.34 121.080186,138.202 152.712186,128.846" id="Fill-33" fill="#D9E9C5"></path>
                <path d="M173.904186,122.83 L241.732186,94.779 C241.732186,94.779 205.885186,112.995 173.904186,122.83" id="Fill-34" fill="#D9E9C5"></path>
                <path d="M173.904186,122.83 L249.708186,112.948 C249.708186,112.948 208.895186,121.758 173.904186,122.83" id="Fill-35" fill="#D9E9C5"></path>
                <path d="M178.616186,123.733 L249.709186,131.382 C249.709186,131.382 210.915186,130.444 178.616186,123.733" id="Fill-36" fill="#D9E9C5"></path>
                <path d="M218.363186,133.424 C218.363186,133.424 195.219186,135.462 179.036186,166.954 C179.036186,166.954 187.664186,130.226 218.363186,133.424" id="Fill-37" fill="#D9E9C5"></path>
                <path d="M217.888186,230.938 C217.888186,230.938 146.028186,146.793 73.415186,237.046 C73.415186,237.046 131.183186,157.098 217.888186,230.938" id="Fill-38" fill="#D9E9C5"></path>
                <path d="M29.695186,259.272 C29.695186,259.272 71.565186,298.645 64.297186,312.613 C50.858186,338.443 18.339186,318.918 7.11318598,295.942 C-7.01681402,267.021 -0.399814024,231.875 29.695186,259.272" id="Fill-39" fill="#32272B"></path>
                <path d="M238.771186,206.825 C238.771186,206.825 193.939186,200.375 186.500186,170.086 C182.466186,153.656 204.248186,134.524 217.966186,134.724 C231.684186,134.923 218.084186,151.664 218.007186,163.778 C217.996186,165.556 231.361186,169.794 231.361186,169.794 C231.361186,169.794 237.009186,193.52 238.771186,206.825" id="Fill-40" fill="#32272B"></path>
                <path d="M44.604186,295.279 C44.604186,295.279 32.744186,273.414 24.455186,282.591 C16.163186,291.766 28.805186,309.868 40.599186,310.583 C52.397186,311.295 44.604186,295.279 44.604186,295.279" id="Fill-41" fill="#D59998"></path>
                <path d="M30.140186,267.081 C30.140186,267.081 34.390186,273.916 29.903186,274.94 C24.156186,276.251 24.178186,259.817 30.140186,267.081" id="Fill-42" fill="#D59998"></path>
                <path d="M19.753186,270.992 C19.753186,270.992 25.757186,276.352 21.741186,278.6 C16.597186,281.477 11.984186,265.704 19.753186,270.992" id="Fill-43" fill="#D59998"></path>
                <path d="M12.281186,279.555 C12.281186,279.555 19.979186,281.904 17.275186,285.628 C13.812186,290.396 3.01118598,278.008 12.281186,279.555" id="Fill-44" fill="#D59998"></path>
                <path d="M252.677186,259.272 C252.677186,259.272 210.808186,298.645 218.076186,312.613 C231.515186,338.443 264.034186,318.918 275.259186,295.942 C289.390186,267.021 282.773186,231.875 252.677186,259.272" id="Fill-45" fill="#32272B"></path>
                <path d="M237.769186,295.279 C237.769186,295.279 249.629186,273.414 257.918186,282.591 C266.211186,291.766 253.568186,309.868 241.773186,310.583 C229.976186,311.295 237.769186,295.279 237.769186,295.279" id="Fill-46" fill="#D59998"></path>
                <path d="M252.232186,267.081 C252.232186,267.081 247.983186,273.916 252.469186,274.94 C258.216186,276.251 258.195186,259.817 252.232186,267.081" id="Fill-47" fill="#D59998"></path>
                <path d="M262.621186,270.992 C262.621186,270.992 256.616186,276.352 260.632186,278.6 C265.775186,281.477 270.388186,265.704 262.621186,270.992" id="Fill-48" fill="#D59998"></path>
                <path d="M270.091186,279.555 C270.091186,279.555 262.394186,281.904 265.098186,285.628 C268.561186,290.396 279.362186,278.008 270.091186,279.555" id="Fill-49" fill="#D59998"></path>
                <path d="M159.149186,120.302 C159.149186,120.302 169.614186,114.739 172.408186,119.87 C172.408186,119.87 167.717186,131.407 166.491186,131.331 C165.262186,131.255 159.149186,120.302 159.149186,120.302" id="Fill-50" fill="#E78379"></path>
                <path d="M145.425186,61.28 C145.425186,61.28 134.079186,66.371 118.110186,64.689 C118.110186,64.689 133.894186,69.821 145.425186,61.28" id="Fill-51" fill="#697673"></path>
                <path d="M208.887186,65.827 C208.887186,65.827 196.455186,65.548 182.757186,57.169 C182.757186,57.169 194.804186,68.584 208.887186,65.827" id="Fill-52" fill="#697673"></path>
                <path d="M213.772186,137.79 L203.854186,153.381 C203.854186,153.381 214.372186,148.132 213.772186,137.79" id="Fill-53" fill="#697673"></path>
                <path d="M220.672186,140.447 L210.753186,156.036 C210.753186,156.036 221.270186,150.789 220.672186,140.447" id="Fill-54" fill="#697673"></path>
                <polyline id="Fill-55" fill="#EEAC2B" points="69.351186 197.978 203.271186 173.034 218.363186 259.413 83.610186 284.723 69.351186 197.978"></polyline>
                <text id="404" transform="translate(145.772311, 230.635625) rotate(-11.000000) translate(-145.772311, -230.635625) " font-family="DINAlternate-Bold, DIN Alternate" font-size="80" font-weight="bold" fill="#FFFBEF">
                    <tspan x="87.772311" y="259.135625">404</tspan>
                </text>
                <path d="M83.742186,223.168 C77.046186,222.508 72.768186,218.764 72.768186,218.764 L71.400186,210.444 C74.942186,212.939 78.679186,214.293 82.378186,214.872 L83.742186,223.168" id="Fill-56" fill="#E3A32E"></path>
                <g id="Group-59" transform="translate(82.194186, 207.370000)">
                    <mask id="mask-2" fill="white">
                        <use xlink:href="#path-1"></use>
                    </mask>
                    <g id="Clip-58"></g>
                    <polygon id="Fill-57" fill="#E3A32E" mask="url(#mask-2)" points="0.184 15.897 27.828 15.897 27.828 0.66 0.184 0.66"></polygon>
                    <text id="4" mask="url(#mask-2)" font-family="LucidaGrande, Lucida Grande" font-size="114.1846" font-weight="normal" fill="#F0E1BD">
                        <tspan x="8.517" y="42.2958715">4</tspan>
                    </text>
                </g>
                <path d="M66.823186,147.25 C66.823186,147.25 76.095186,170.836 82.496186,180.528 C88.898186,190.219 117.103186,199.587 110.656186,207.403 C110.656186,207.403 92.565186,227.164 65.465186,206.448 C52.732186,196.715 46.237186,182.705 46.237186,182.705 C46.237186,182.705 51.433186,166.997 66.823186,147.25" id="Fill-60" fill="#32272B"></path>
                <path d="M86.135186,204.258 L102.885186,212.058 C102.885186,212.058 96.310186,202.316 86.135186,204.258" id="Fill-61" fill="#697673"></path>
                <path d="M90.815186,199.028 L107.564186,206.825 C107.564186,206.825 100.989186,197.082 90.815186,199.028" id="Fill-62" fill="#697673"></path>
                <polyline id="Fill-63" fill="#F5F0D3" points="218.363186 259.413 84.464186 289.137 69.351186 216.709 72.340186 216.166 86.135186 284.248 218.363186 259.413"></polyline>
            </g>
        </g>
    </g>
</svg>